<svg id="visual" viewBox="0 0 900 600" width="900" height="600" xmlns="http://www.w3.org/2000/svg" xmlns:xlink="http://www.w3.org/1999/xlink" version="1.1"><rect x="0" y="0" width="900" height="600" fill="#fff"></rect><defs><linearGradient id="grad1_0" x1="33.3%" y1="0%" x2="100%" y2="100%"><stop offset="20%" stop-color="#ffffff" stop-opacity="1"></stop><stop offset="80%" stop-color="#ffffff" stop-opacity="1"></stop></linearGradient></defs><defs><linearGradient id="grad2_0" x1="0%" y1="0%" x2="66.7%" y2="100%"><stop offset="20%" stop-color="#ffffff" stop-opacity="1"></stop><stop offset="80%" stop-color="#ffffff" stop-opacity="1"></stop></linearGradient></defs><g transform="translate(900, 0)"><path d="M0 486.7C-59.1 454.2 -118.1 421.6 -159.2 384.3C-200.3 347 -223.4 305 -275.8 275.8C-328.1 246.5 -409.7 230.1 -449.7 186.3C-489.7 142.4 -488.2 71.2 -486.7 0L0 0Z" fill="#39aba3"></path></g><g transform="translate(0, 600)"><path d="M0 -486.7C69.8 -486.4 139.7 -486.1 186.3 -449.7C232.9 -413.3 256.3 -340.9 290.6 -290.6C324.9 -240.4 370.2 -212.4 404.7 -167.6C439.2 -122.9 463 -61.4 486.7 0L0 0Z" fill="#39aba3"></path></g></svg>